<svg xmlns="http://www.w3.org/2000/svg" version="1.1" xmlns:xlink="http://www.w3.org/1999/xlink" width="512" height="512" x="0" y="0" viewBox="0 0 512.123 512.123" style="enable-background:new 0 0 512 512" xml:space="preserve" class=""><g><path fill="#00005b" d="M90.688 6.402h330.746c50.086 0 90.689 40.603 90.689 90.688v317.943c0 50.086-40.603 90.689-90.689 90.689H90.688C40.603 505.721 0 465.119 0 415.033V97.09C0 47.004 40.603 6.402 90.688 6.402z" opacity="1" data-original="#00005b" class=""></path><g fill="#99f"><path d="M205.735 305.14h-79.361l-16.146 50.254a4.04 4.04 0 0 1-4.123 3.092H65.91c-2.292 0-3.094-1.26-2.405-3.779l68.71-197.067c.687-2.061 1.374-4.076 2.061-6.712.9-4.583 1.36-9.242 1.374-13.913a2.127 2.127 0 0 1 2.405-2.405h54.625c1.599 0 2.516.573 2.749 1.718l77.985 218.722c.687 2.292 0 3.438-2.061 3.436h-44.662a3.174 3.174 0 0 1-3.435-2.405zm-39.853-131.353h-.344l-26.796 88.979h54.281zM399.842 285.58h-67.679a48.265 48.265 0 0 0 6.528 18.928 35.35 35.35 0 0 0 15.631 12.883 65.28 65.28 0 0 0 27.313 5.353 123.779 123.779 0 0 0 22.159-2.433 81.719 81.719 0 0 0 19.052-4.966c1.143-.912 1.718-.343 1.718 1.718V349.7a5.082 5.082 0 0 1-.516 2.577 4.928 4.928 0 0 1-1.546 1.546 87.408 87.408 0 0 1-21.284 6.341 151.004 151.004 0 0 1-30.232 2.577c-16.265 0-29.893-2.519-40.883-7.558a72.873 72.873 0 0 1-26.796-20.269 79.359 79.359 0 0 1-14.773-27.999 110.247 110.247 0 0 1-4.466-31.091 108.277 108.277 0 0 1 5.325-33.839 88.407 88.407 0 0 1 15.975-29.202c15.704-19.028 37.317-26.958 61.495-26.958 20.835 0 42.207 6.9 55.655 23.522a78.138 78.138 0 0 1 12.711 24.22 86.317 86.317 0 0 1 4.123 26.11c0 5.04-.172 9.621-.516 13.742-.343 4.122-.629 7.1-.858 8.932a3.114 3.114 0 0 1-3.092 2.749c-1.374 0-3.722.172-7.042.515-3.323.343-7.445.572-12.367.687-4.932.116-10.138-.722-15.635-.722zm-67.679-31.297h45.005c5.497 0 9.562-.057 12.196-.172a12.01 12.01 0 0 0 4.983-1.651v-2.062a27.467 27.467 0 0 0-1.374-7.901 28.065 28.065 0 0 0-27.827-19.582 29.842 29.842 0 0 0-28.343 16.146 49.627 49.627 0 0 0-4.64 15.222z" fill="#9999ff" opacity="1" data-original="#9999ff"></path></g></g></svg>