<svg xmlns="http://www.w3.org/2000/svg" version="1.1" xmlns:xlink="http://www.w3.org/1999/xlink" width="512" height="512" x="0" y="0" viewBox="0 0 512 512" style="enable-background:new 0 0 512 512" xml:space="preserve" class=""><g><path fill="#001834" d="M90.667 6.4h330.667C471.467 6.4 512 46.933 512 97.067v317.867c0 50.133-40.533 90.667-90.667 90.667H90.667C40.533 505.6 0 465.067 0 414.933V97.067C0 46.933 40.533 6.4 90.667 6.4z" opacity="1" data-original="#001834" class=""></path><g fill="#00a9ff"><path d="M115.2 356.48V136.96c0-1.493.64-2.347 2.133-2.347 3.627 0 7.04 0 11.947-.213 5.12-.213 10.453-.213 16.213-.427s11.947-.213 18.56-.427c6.613-.213 13.013-.213 19.413-.213 17.493 0 32 2.133 43.947 6.613 10.667 3.627 20.48 9.6 28.587 17.493 6.827 6.827 12.16 15.147 15.573 24.32 3.2 8.96 4.907 18.133 4.907 27.733 0 18.347-4.267 33.493-12.8 45.44s-20.48 20.907-34.347 26.027c-14.507 5.333-30.507 7.253-48 7.253-5.12 0-8.533 0-10.667-.213-2.133-.213-5.12-.213-9.173-.213v68.48c.213 1.493-.853 2.773-2.347 2.987H117.76c-1.707 0-2.56-.853-2.56-2.773zm46.507-180.693v71.68c2.987.213 5.76.427 8.32.427h11.307c14.731 0 31.744-3.462 42.026-15.146 8.849-10.056 8.874-29.998 1.707-40.96-8.508-13.013-25.522-16.783-40.107-16.427-5.547 0-10.453 0-14.507.213-4.266-.214-7.253-.001-8.746.213zM409.6 234.453c-6.4-3.413-13.227-5.76-20.48-7.253-7.893-1.707-15.787-2.773-23.893-2.773-4.267-.213-8.747.427-12.8 1.493-2.773.64-5.12 2.133-6.613 4.267-1.067 1.707-1.707 3.84-1.707 5.76s.853 3.84 2.133 5.547c1.92 2.347 4.48 4.267 7.253 5.76 4.907 2.56 10.027 4.907 15.147 7.04 11.52 3.84 22.613 9.173 32.853 15.573 7.04 4.48 12.8 10.453 16.853 17.707 3.413 6.827 5.12 14.293 4.907 21.973.213 10.027-2.773 20.053-8.32 28.373-5.973 8.533-14.293 15.147-23.893 18.987-10.453 4.48-23.253 6.827-38.613 6.827-9.813 0-19.413-.853-29.013-2.773a86.055 86.055 0 0 1-21.76-6.827c-1.493-.853-2.56-2.347-2.347-4.053v-37.12c0-.64.213-1.493.853-1.92s1.28-.213 1.92.213c8.32 4.907 17.067 8.32 26.453 10.453 8.107 2.133 16.64 3.2 25.173 3.2 8.107 0 13.867-1.067 17.707-2.987 3.413-1.493 5.76-5.12 5.76-8.96 0-2.987-1.707-5.76-5.12-8.533s-10.453-5.973-20.907-10.027c-10.88-3.84-20.907-8.96-30.293-15.36-6.613-4.693-12.16-10.88-16.213-18.133-3.413-6.827-5.12-14.293-4.907-21.76 0-9.173 2.56-17.92 7.253-25.813 5.333-8.533 13.227-15.36 22.4-19.627 10.027-5.12 22.613-7.467 37.76-7.467 8.747 0 17.707.64 26.453 1.92 6.4.853 12.587 2.56 18.347 4.907.853.213 1.707 1.067 2.133 1.92.213.853.427 1.707.427 2.56v34.773c0 .853-.427 1.707-1.067 2.133-1.919.427-2.986.427-3.839 0z" fill="#00a9ff" opacity="1" data-original="#00a9ff"></path></g></g></svg>